<?xml version="1.0" encoding="UTF-8" standalone="no"?>
<!DOCTYPE svg PUBLIC "-//W3C//DTD SVG 1.1//EN" "http://www.w3.org/Graphics/SVG/1.1/DTD/svg11.dtd">
<svg width="100%" height="100%" viewBox="0 0 1236 1055" version="1.1" xmlns="http://www.w3.org/2000/svg" xmlns:xlink="http://www.w3.org/1999/xlink" xml:space="preserve" xmlns:serif="http://www.serif.com/" style="fill-rule:evenodd;clip-rule:evenodd;stroke-linejoin:round;stroke-miterlimit:2;">
    <g transform="matrix(1,0,0,1,-379,-474)">
        <g>
            <path d="M1350.84,1222.64C1303.61,1420.29 1105.08,1542.22 907.423,1494.98C794.184,1467.92 705.803,1391.19 659.851,1293.42C704.442,1373.31 781.056,1435 877.075,1457.95C1059.18,1501.47 1242.08,1389.14 1285.6,1207.05C1321.23,1057.96 1252.41,908.351 1126.36,835.116C1125.4,834.827 1124.45,834.538 1123.48,834.27C1114.96,831.84 1107.43,832.597 1099.75,835.964C1089.31,840.529 1082.2,848.73 1076.21,858.047C1073.04,862.949 1070.16,868.015 1067,873.262C1061.03,872.007 1055.58,870.854 1047.59,869.164C1051.38,876.662 1054.22,881.719 1056.5,886.999C1057.86,890.153 1059.56,893.893 1059.04,897.029C1055.46,918.496 1051.34,939.847 1047.17,962.378C1040.99,963.963 1033.74,965.846 1024.82,968.178C1031.28,977.889 1036.7,986.711 1042.8,995.007C1046.74,1000.38 1048.8,1005.84 1048.96,1012.54C1049.66,1043.15 1054.28,1073.24 1062.46,1102.76C1062.82,1104.05 1062.55,1105.51 1062.67,1109.92C1039.52,1080.5 1021.22,1051.9 1006.77,1020.93C992.524,990.347 985.285,958.213 986.689,924.296C988.044,891.917 999.426,863.951 1023.21,841.63C1038.65,827.131 1056.6,818.211 1078.55,819.286C1081.9,819.449 1085.29,818.758 1092.12,818.153C1091.59,817.793 1091.09,817.45 1090.59,817.098C1085.08,813.259 1081.71,810.436 1077.87,808.584C1062.4,801.062 1046.47,797.821 1030.26,797.502C1019.13,797.275 1007.85,798.431 996.513,800.492C987.284,802.161 979.342,806.055 973.522,813.839C965.629,824.375 957.645,834.827 949.363,845.036C946.343,848.718 942.722,852.292 938.644,854.638C931.263,858.864 923.346,862.088 914.662,866.211C921.368,893.421 910.423,916.313 899.13,938.864C892.529,938.283 886.469,937.757 877.521,936.959C881.733,943.316 883.779,947.26 886.648,950.541C892.003,956.642 892.446,962.664 890.16,970.53C885.221,987.54 881.566,1004.94 877.506,1022.19C875.82,1029.4 874.387,1036.68 872.843,1043.91C869.711,1039.62 868.575,1035.32 867.863,1030.94C866.046,1019.71 864.304,1008.47 862.78,997.194C857.726,959.729 852.84,922.279 854.35,884.315C855.446,856.363 860.769,829.975 881.721,809.363C887.282,803.904 893.054,798.74 899.094,793.948C908.406,786.531 918.369,779.995 929.121,774.632C930.656,773.868 932.201,773.117 933.775,772.399C948.063,765.827 962.92,762.121 978.834,764.646C989.57,766.351 1000.36,767.762 1011.07,769.522C1013.35,769.893 1015.62,770.291 1017.89,770.696C1028.89,772.686 1039.73,775.46 1051.43,778.06C1051.27,776.263 1051.2,774.906 1051.08,773.747C1051.02,772.993 1050.93,772.332 1050.8,771.686C1050.52,770.39 1050.13,768.882 1049.26,767.997C1037.67,756.077 1024.79,746.235 1007.63,744.139C993.195,742.385 979.9,739.294 975.612,722.551C975.438,721.944 974.134,721.632 972.824,720.888C964.804,728.663 955.304,729.972 944.293,727.463C936.874,725.776 928.765,725.277 921.264,726.301C908.948,727.969 899.019,725.977 892.418,714.536C892.202,714.152 890.824,714.413 889.126,714.315C882.432,732.8 865.068,738.402 848.633,742.223C838.474,744.591 830.107,748.311 822.191,754.106C813.561,760.419 805.357,767.264 796.939,773.874C810.501,742.912 825.047,712.775 851.26,690.371C864.949,678.637 881.246,673.591 899.078,673.032C931.81,672.036 962.158,680.556 990.296,696.826C1004.86,705.251 1018.99,714.459 1032.91,723.935C1051.98,736.915 1070.67,750.486 1089.89,764.057C1089.59,762.461 1089.57,761.115 1089.12,759.924C1076.33,724.903 1063.32,689.952 1056.85,653.032C1052.28,627.071 1046.85,601.238 1043.59,575.121C1040.58,551.109 1051.3,531.839 1069.33,516.397C1095.43,494.087 1126.92,496.264 1158.69,494.855C1157.82,497.597 1157.8,498.65 1157.27,499.163C1145.91,510.211 1134.65,521.368 1122.93,532.059C1120.23,534.513 1116.07,535.745 1112.38,536.721C1106.99,538.176 1100.83,536.606 1094.99,540.769C1099.3,545.845 1103.06,550.26 1107.49,555.515C1098.57,569.224 1101.73,589.275 1082.93,598.705C1087.63,602.213 1091.09,604.823 1094.22,607.158C1091.01,671.798 1103.62,752.433 1120.44,770.288C1121.35,765.12 1122.18,760.828 1122.82,756.516C1128.15,721.397 1134.06,686.502 1147.82,653.373C1161.13,621.331 1185.13,601.497 1217.22,590.299C1236.91,583.421 1257.29,582.116 1277.87,583.788C1320.29,587.224 1357.65,604.32 1392.66,627.447C1395.31,629.186 1397.69,631.34 1400.2,633.308C1394.93,633.745 1390.63,632.299 1386.21,631.784C1365.03,629.451 1343.82,626.572 1322.55,625.546C1313.22,625.1 1304.65,626.126 1298.48,617.297C1297.15,615.405 1294.16,614.702 1290.91,612.855C1288.9,618.821 1287.24,623.835 1285.25,629.742C1256.07,636.446 1228.69,647.932 1208.36,670.304C1200.47,667.189 1194.09,664.678 1185.39,661.246C1187.17,666.813 1187.5,669.621 1188.87,671.757C1195.07,681.307 1192.86,688.799 1185.32,696.958C1167.46,716.292 1155.58,739.331 1147.4,764.26C1145.24,770.84 1143.96,777.706 1141.89,785.907C1144.58,784.324 1145.57,784.055 1146.11,783.408C1149.63,779.232 1153.09,775.018 1156.48,770.723C1177.95,743.312 1205.54,724.914 1239.06,715.694C1259.21,710.167 1279.28,709.845 1299.53,716.471C1340.13,729.776 1367.52,757.331 1386.16,794.722C1386.81,796.009 1386.51,797.782 1386.79,801.047C1369.03,787.246 1350.26,779.328 1330.46,773.894C1322.19,771.597 1315.12,768.813 1311.22,760.503C1310.26,758.453 1307.66,757.154 1304.33,754.194C1304.06,761.018 1303.88,765.758 1303.65,771.569C1287.26,770.95 1271.49,770.255 1255.7,769.728C1246.89,769.443 1239.93,766.561 1236.68,757.607C1236.52,757.173 1235.11,757.193 1233.45,756.81C1232.21,762.846 1230.97,768.859 1229.71,774.855C1222.66,776.898 1216.05,778.516 1209.63,780.707C1190.89,787.125 1172.85,794.905 1157.93,808.102C1307.4,882.886 1391.37,1053.08 1350.84,1222.64Z" style="fill:rgb(137,166,0);"/>
            <path d="M636.534,1277.15L636.534,1307.87C636.534,1308.49 636.672,1308.95 636.95,1309.27C637.226,1309.59 637.721,1309.84 638.434,1310.04L638.434,1310.99L625.788,1310.99L625.788,1310.04C626.501,1309.84 626.995,1309.59 627.273,1309.27C627.55,1308.95 627.688,1308.49 627.688,1307.87L627.688,1277.15L615.102,1277.15C614.509,1277.15 614.053,1277.29 613.737,1277.56C613.42,1277.83 613.163,1278.33 612.966,1279.05L612.015,1279.05L612.015,1268.57L612.966,1268.57C613.183,1269.3 613.445,1269.79 613.752,1270.07C614.058,1270.34 614.509,1270.47 615.102,1270.47L649.09,1270.47C649.703,1270.47 650.169,1270.34 650.485,1270.07C650.802,1269.79 651.059,1269.3 651.257,1268.57L652.207,1268.57L652.207,1279.05L651.257,1279.05C651.059,1278.33 650.802,1277.83 650.485,1277.56C650.169,1277.29 649.703,1277.15 649.09,1277.15L636.534,1277.15Z" style="fill:rgb(209,172,128);fill-rule:nonzero;"/>
            <path d="M671.853,1287.78L685.507,1287.78C687.525,1287.78 688.95,1287.72 689.782,1287.6C690.612,1287.48 691.374,1287.24 692.067,1286.86C693.571,1286.05 694.323,1284.58 694.323,1282.47C694.323,1280.35 693.571,1278.89 692.067,1278.07C691.355,1277.68 690.598,1277.42 689.796,1277.32C688.995,1277.21 687.565,1277.15 685.507,1277.15L671.853,1277.15L671.853,1287.78ZM671.853,1294.46L671.853,1307.9C671.853,1308.5 671.996,1308.96 672.283,1309.29C672.57,1309.61 673.06,1309.86 673.752,1310.04L673.752,1310.99L661.107,1310.99L661.107,1310.04C661.82,1309.84 662.314,1309.59 662.591,1309.27C662.868,1308.95 663.007,1308.5 663.007,1307.9L663.007,1273.59C663.007,1272.98 662.868,1272.51 662.591,1272.2C662.314,1271.88 661.82,1271.62 661.107,1271.42L661.107,1270.47L686.457,1270.47C689.544,1270.47 691.993,1270.65 693.804,1271.01C695.614,1271.37 697.192,1271.99 698.538,1272.88C700.101,1273.91 701.269,1275.3 702.041,1277.06C702.773,1278.77 703.139,1280.59 703.139,1282.53C703.139,1289.14 699.468,1293 692.127,1294.13L699.993,1305.32C701.377,1307.28 702.392,1308.54 703.035,1309.11C703.678,1309.67 704.465,1309.98 705.395,1310.04L705.395,1310.99L690.756,1310.99L690.756,1310.04C691.763,1309.88 692.267,1309.53 692.267,1308.97C692.267,1308.62 691.803,1307.76 690.874,1306.39L682.669,1294.46L671.853,1294.46Z" style="fill:rgb(209,172,128);fill-rule:nonzero;"/>
            <path d="M742.262,1295.11L735.692,1280.68L729.015,1295.11L742.262,1295.11ZM744.807,1300.66L726.392,1300.66L723.665,1306.36C723.288,1307.15 723.101,1307.78 723.101,1308.23C723.101,1309.1 723.762,1309.71 725.085,1310.04L725.085,1310.99L711.683,1310.99L711.683,1310.04C712.474,1309.88 713.078,1309.61 713.494,1309.21C713.909,1308.82 714.384,1308.04 714.919,1306.9L729.82,1275.76C730.295,1274.77 730.532,1273.98 730.532,1273.38C730.532,1272.47 729.958,1271.82 728.811,1271.42L728.811,1270.47L743.177,1270.47L743.177,1271.42C742.009,1271.76 741.426,1272.34 741.426,1273.18C741.426,1273.75 741.614,1274.4 741.99,1275.13L757.425,1306.36C758.078,1307.69 758.652,1308.59 759.147,1309.08C759.641,1309.56 760.305,1309.88 761.136,1310.04L761.136,1310.99L746.22,1310.99L746.22,1310.04C747.53,1309.82 748.185,1309.21 748.185,1308.2C748.185,1307.79 747.987,1307.17 747.591,1306.36L744.807,1300.66Z" style="fill:rgb(209,172,128);fill-rule:nonzero;"/>
            <path d="M784.24,1299.21L794.992,1275.43C795.447,1274.42 795.675,1273.64 795.675,1273.09C795.675,1272.24 795.021,1271.68 793.715,1271.42L793.715,1270.47L807.586,1270.47L807.586,1271.42C806.714,1271.54 806.11,1271.79 805.774,1272.17C805.437,1272.54 804.853,1273.63 804.021,1275.43L789.972,1305.74C789.378,1307.02 789.081,1307.87 789.081,1308.26C789.081,1309.27 789.705,1309.86 790.952,1310.04L790.952,1310.99L776.993,1310.99L776.993,1310.04C778.24,1309.86 778.864,1309.26 778.864,1308.23C778.864,1307.86 778.567,1307.02 777.973,1305.74L763.924,1275.43C763.092,1273.63 762.508,1272.54 762.171,1272.17C761.834,1271.79 761.23,1271.54 760.36,1271.42L760.36,1270.47L774.754,1270.47L774.754,1271.42C773.447,1271.68 772.795,1272.24 772.795,1273.09C772.795,1273.64 773.022,1274.42 773.477,1275.43L784.24,1299.21Z" style="fill:rgb(209,172,128);fill-rule:nonzero;"/>
            <path d="M826.638,1293.21L826.638,1304.31L852.7,1304.31C853.293,1304.31 853.748,1304.17 854.065,1303.9C854.381,1303.62 854.639,1303.13 854.837,1302.41L855.787,1302.41L855.787,1312.89L854.837,1312.89C854.639,1312.18 854.381,1311.68 854.065,1311.41C853.748,1311.13 853.293,1310.99 852.7,1310.99L815.892,1310.99L815.892,1310.04C816.604,1309.84 817.099,1309.59 817.376,1309.27C817.653,1308.95 817.792,1308.49 817.792,1307.87L817.792,1273.59C817.792,1272.98 817.653,1272.51 817.376,1272.2C817.099,1271.88 816.604,1271.62 815.892,1271.42L815.892,1270.47L851.987,1270.47C852.581,1270.47 853.036,1270.33 853.352,1270.05C853.669,1269.77 853.926,1269.28 854.124,1268.57L855.074,1268.57L855.074,1279.05L854.124,1279.05C853.926,1278.35 853.669,1277.86 853.352,1277.57C853.036,1277.29 852.581,1277.15 851.987,1277.15L826.638,1277.15L826.638,1286.77L843.082,1286.77C843.676,1286.77 844.131,1286.63 844.448,1286.35C844.764,1286.08 845.021,1285.58 845.219,1284.87L846.169,1284.87L846.169,1295.11L845.219,1295.11C845.021,1294.42 844.764,1293.93 844.448,1293.64C844.131,1293.36 843.676,1293.21 843.082,1293.21L826.638,1293.21Z" style="fill:rgb(209,172,128);fill-rule:nonzero;"/>
            <path d="M877.688,1304.31L902.592,1304.31C903.206,1304.31 903.671,1304.17 903.988,1303.9C904.304,1303.62 904.561,1303.13 904.759,1302.41L905.709,1302.41L905.709,1312.89L904.759,1312.89C904.561,1312.18 904.304,1311.68 903.988,1311.41C903.671,1311.13 903.206,1310.99 902.592,1310.99L866.943,1310.99L866.943,1310.04C867.655,1309.84 868.149,1309.59 868.427,1309.27C868.704,1308.95 868.842,1308.49 868.842,1307.87L868.842,1273.59C868.842,1272.98 868.704,1272.51 868.427,1272.2C868.149,1271.88 867.655,1271.62 866.943,1271.42L866.943,1270.47L879.588,1270.47L879.588,1271.42C878.875,1271.6 878.38,1271.85 878.104,1272.18C877.826,1272.51 877.688,1272.98 877.688,1273.59L877.688,1304.31Z" style="fill:rgb(209,172,128);fill-rule:nonzero;"/>
            <path d="M962.015,1295.11L955.444,1280.68L948.767,1295.11L962.015,1295.11ZM964.56,1300.66L946.144,1300.66L943.417,1306.36C943.041,1307.15 942.853,1307.78 942.853,1308.23C942.853,1309.1 943.514,1309.71 944.838,1310.04L944.838,1310.99L931.436,1310.99L931.436,1310.04C932.227,1309.88 932.831,1309.61 933.246,1309.21C933.662,1308.82 934.137,1308.04 934.671,1306.9L949.572,1275.76C950.047,1274.77 950.284,1273.98 950.284,1273.38C950.284,1272.47 949.71,1271.82 948.563,1271.42L948.563,1270.47L962.93,1270.47L962.93,1271.42C961.762,1271.76 961.178,1272.34 961.178,1273.18C961.178,1273.75 961.366,1274.4 961.743,1275.13L977.178,1306.36C977.831,1307.69 978.404,1308.59 978.899,1309.08C979.394,1309.56 980.057,1309.88 980.888,1310.04L980.888,1310.99L965.972,1310.99L965.972,1310.04C967.282,1309.82 967.938,1309.21 967.938,1308.2C967.938,1307.79 967.74,1307.17 967.344,1306.36L964.56,1300.66Z" style="fill:rgb(209,172,128);fill-rule:nonzero;"/>
            <path d="M999.198,1283.24L999.198,1307.87C999.198,1308.49 999.336,1308.95 999.614,1309.27C999.89,1309.59 1000.39,1309.84 1001.1,1310.04L1001.1,1310.99L989.195,1310.99L989.195,1310.04C989.907,1309.84 990.401,1309.59 990.679,1309.27C990.956,1308.95 991.095,1308.49 991.095,1307.87L991.095,1273.56C991.095,1272.97 990.956,1272.51 990.679,1272.2C990.401,1271.88 989.907,1271.62 989.195,1271.42L989.195,1270.47L1002.97,1270.47L1002.97,1271.42C1002.12,1271.64 1001.69,1272.1 1001.69,1272.79C1001.69,1273.26 1001.97,1273.79 1002.52,1274.36L1024.87,1297.6L1024.87,1273.56C1024.87,1272.97 1024.74,1272.51 1024.46,1272.2C1024.18,1271.88 1023.69,1271.62 1022.97,1271.42L1022.97,1270.47L1034.88,1270.47L1034.88,1271.42C1034.17,1271.62 1033.67,1271.88 1033.39,1272.2C1033.12,1272.51 1032.98,1272.97 1032.98,1273.56L1032.98,1307.87C1032.98,1308.49 1033.12,1308.95 1033.39,1309.27C1033.67,1309.59 1034.17,1309.84 1034.88,1310.04L1034.88,1310.99L1022.11,1310.99L1022.11,1310.04C1022.94,1309.86 1023.36,1309.44 1023.36,1308.77C1023.36,1308.37 1022.88,1307.68 1021.91,1306.69L999.198,1283.24Z" style="fill:rgb(209,172,128);fill-rule:nonzero;"/>
            <path d="M1057.79,1304.31L1068.9,1304.31C1072.45,1304.31 1075.11,1303.83 1076.9,1302.86C1080.72,1300.78 1082.63,1296.73 1082.63,1290.72C1082.63,1286.36 1081.6,1283.03 1079.54,1280.71C1078.39,1279.43 1077.01,1278.51 1075.38,1277.97C1073.76,1277.42 1071.6,1277.15 1068.9,1277.15L1057.79,1277.15L1057.79,1304.31ZM1048.94,1307.87L1048.94,1273.59C1048.94,1272.98 1048.8,1272.51 1048.53,1272.2C1048.25,1271.88 1047.76,1271.62 1047.04,1271.42L1047.04,1270.47L1069.65,1270.47C1074.6,1270.47 1078.4,1271.04 1081.05,1272.17C1084.86,1273.81 1087.67,1276.52 1089.49,1280.3C1090.93,1283.27 1091.66,1286.74 1091.66,1290.72C1091.66,1297.7 1089.51,1303.03 1085.21,1306.69C1083.41,1308.23 1081.3,1309.34 1078.88,1310C1076.47,1310.66 1073.39,1310.99 1069.65,1310.99L1047.04,1310.99L1047.04,1310.04C1047.76,1309.84 1048.25,1309.59 1048.53,1309.27C1048.8,1308.95 1048.94,1308.49 1048.94,1307.87Z" style="fill:rgb(209,172,128);fill-rule:nonzero;"/>
            <path d="M1157.04,1293.3L1133.68,1293.3L1133.68,1307.9C1133.68,1308.5 1133.82,1308.96 1134.11,1309.29C1134.4,1309.61 1134.89,1309.86 1135.58,1310.04L1135.58,1310.99L1122.93,1310.99L1122.93,1310.04C1123.65,1309.84 1124.14,1309.59 1124.42,1309.27C1124.7,1308.95 1124.83,1308.5 1124.83,1307.9L1124.83,1273.56C1124.83,1272.97 1124.7,1272.51 1124.42,1272.2C1124.14,1271.88 1123.65,1271.62 1122.93,1271.42L1122.93,1270.47L1135.58,1270.47L1135.58,1271.42C1134.87,1271.6 1134.37,1271.85 1134.1,1272.18C1133.82,1272.51 1133.68,1272.97 1133.68,1273.56L1133.68,1286.62L1157.04,1286.62L1157.04,1273.56C1157.04,1272.97 1156.9,1272.51 1156.62,1272.18C1156.35,1271.85 1155.85,1271.6 1155.14,1271.42L1155.14,1270.47L1167.79,1270.47L1167.79,1271.42C1167.07,1271.62 1166.58,1271.88 1166.3,1272.2C1166.02,1272.51 1165.89,1272.97 1165.89,1273.56L1165.89,1307.9C1165.89,1308.5 1166.02,1308.95 1166.3,1309.27C1166.58,1309.59 1167.07,1309.84 1167.79,1310.04L1167.79,1310.99L1155.14,1310.99L1155.14,1310.04C1155.83,1309.86 1156.32,1309.61 1156.61,1309.29C1156.9,1308.96 1157.04,1308.5 1157.04,1307.9L1157.04,1293.3Z" style="fill:rgb(209,172,128);fill-rule:nonzero;"/>
            <path d="M1202.26,1276.65C1198.4,1276.65 1195.18,1277.79 1192.6,1280.09C1189.55,1282.8 1188.03,1286.34 1188.03,1290.73C1188.03,1295.12 1189.55,1298.67 1192.6,1301.38C1195.18,1303.67 1198.42,1304.82 1202.32,1304.82C1206.22,1304.82 1209.45,1303.67 1212,1301.38C1213.53,1300.01 1214.7,1298.34 1215.51,1296.37C1216.22,1294.61 1216.58,1292.79 1216.58,1290.91C1216.58,1286.33 1215.06,1282.72 1212,1280.09C1209.41,1277.83 1206.16,1276.69 1202.26,1276.65ZM1202.23,1269.76C1209.3,1269.76 1214.9,1271.67 1219.04,1275.49C1223.42,1279.49 1225.6,1284.65 1225.6,1290.99C1225.6,1294.86 1224.55,1298.49 1222.46,1301.85C1218.36,1308.42 1211.63,1311.7 1202.29,1311.7C1195.28,1311.7 1189.7,1309.8 1185.57,1305.98C1183.35,1303.94 1181.66,1301.49 1180.52,1298.64C1179.51,1296.13 1179,1293.49 1179,1290.72C1179,1286.66 1180.04,1282.95 1182.12,1279.59C1186.1,1273.16 1192.8,1269.88 1202.23,1269.76Z" style="fill:rgb(209,172,128);fill-rule:nonzero;"/>
            <path d="M1257.72,1277.15L1257.72,1307.87C1257.72,1308.49 1257.86,1308.95 1258.13,1309.27C1258.41,1309.59 1258.9,1309.84 1259.62,1310.04L1259.62,1310.99L1246.97,1310.99L1246.97,1310.04C1247.68,1309.84 1248.18,1309.59 1248.46,1309.27C1248.73,1308.95 1248.87,1308.49 1248.87,1307.87L1248.87,1277.15L1236.29,1277.15C1235.69,1277.15 1235.24,1277.29 1234.92,1277.56C1234.6,1277.83 1234.35,1278.33 1234.15,1279.05L1233.2,1279.05L1233.2,1268.57L1234.15,1268.57C1234.37,1269.3 1234.63,1269.79 1234.94,1270.07C1235.24,1270.34 1235.69,1270.47 1236.29,1270.47L1270.27,1270.47C1270.89,1270.47 1271.35,1270.34 1271.67,1270.07C1271.98,1269.79 1272.24,1269.3 1272.44,1268.57L1273.39,1268.57L1273.39,1279.05L1272.44,1279.05C1272.24,1278.33 1271.98,1277.83 1271.67,1277.56C1271.35,1277.29 1270.89,1277.15 1270.27,1277.15L1257.72,1277.15Z" style="fill:rgb(209,172,128);fill-rule:nonzero;"/>
            <path d="M1293.04,1293.21L1293.04,1304.31L1319.1,1304.31C1319.69,1304.31 1320.15,1304.17 1320.46,1303.9C1320.78,1303.62 1321.04,1303.13 1321.23,1302.41L1322.19,1302.41L1322.19,1312.89L1321.23,1312.89C1321.04,1312.18 1320.78,1311.68 1320.46,1311.41C1320.15,1311.13 1319.69,1310.99 1319.1,1310.99L1282.29,1310.99L1282.29,1310.04C1283,1309.84 1283.5,1309.59 1283.77,1309.27C1284.05,1308.95 1284.19,1308.49 1284.19,1307.87L1284.19,1273.59C1284.19,1272.98 1284.05,1272.51 1283.77,1272.2C1283.5,1271.88 1283,1271.62 1282.29,1271.42L1282.29,1270.47L1318.39,1270.47C1318.98,1270.47 1319.43,1270.33 1319.75,1270.05C1320.07,1269.77 1320.32,1269.28 1320.52,1268.57L1321.47,1268.57L1321.47,1279.05L1320.52,1279.05C1320.32,1278.35 1320.07,1277.86 1319.75,1277.57C1319.43,1277.29 1318.98,1277.15 1318.39,1277.15L1293.04,1277.15L1293.04,1286.77L1309.48,1286.77C1310.07,1286.77 1310.53,1286.63 1310.85,1286.35C1311.16,1286.08 1311.42,1285.58 1311.62,1284.87L1312.57,1284.87L1312.57,1295.11L1311.62,1295.11C1311.42,1294.42 1311.16,1293.93 1310.85,1293.64C1310.53,1293.36 1310.07,1293.21 1309.48,1293.21L1293.04,1293.21Z" style="fill:rgb(209,172,128);fill-rule:nonzero;"/>
            <path d="M1344.09,1304.31L1368.99,1304.31C1369.6,1304.31 1370.07,1304.17 1370.39,1303.9C1370.7,1303.62 1370.96,1303.13 1371.16,1302.41L1372.11,1302.41L1372.11,1312.89L1371.16,1312.89C1370.96,1312.18 1370.7,1311.68 1370.39,1311.41C1370.07,1311.13 1369.6,1310.99 1368.99,1310.99L1333.34,1310.99L1333.34,1310.04C1334.05,1309.84 1334.55,1309.59 1334.82,1309.27C1335.1,1308.95 1335.24,1308.49 1335.24,1307.87L1335.24,1273.59C1335.24,1272.98 1335.1,1272.51 1334.82,1272.2C1334.55,1271.88 1334.05,1271.62 1333.34,1271.42L1333.34,1270.47L1345.99,1270.47L1345.99,1271.42C1345.27,1271.6 1344.78,1271.85 1344.5,1272.18C1344.22,1272.51 1344.09,1272.98 1344.09,1273.59L1344.09,1304.31Z" style="fill:rgb(209,172,128);fill-rule:nonzero;"/>
            <path d="M836.458,991.654C833.133,993.257 828.252,994.884 821.649,995.398C805.177,996.678 794.866,1010.78 793.885,1012.48C787.712,1023.21 776.157,1023.69 763.573,1020.96C763.571,1020.96 763.735,1020.91 764.021,1020.82C770.649,1018.76 772.962,1010.51 768.314,1005.36C768.234,1005.27 768.153,1005.18 768.07,1005.09C758.955,994.094 753.608,988.101 736.466,990.9C719.336,993.675 709.695,989.309 703.175,982.885C703.774,983.113 718.679,988.568 739.708,982.646C761.204,976.593 775.953,992.204 784.662,1004.84C784.662,1004.84 794.567,991.618 808.347,990.506C818.395,989.692 829.568,992.886 836.458,991.654Z" style="fill:rgb(46,42,43);fill-rule:nonzero;"/>
            <path d="M711.006,1026.2C709.154,1027.09 706.437,1027.99 702.761,1028.28C693.591,1028.99 687.85,1036.85 687.304,1037.79C683.867,1043.77 677.434,1044.03 670.428,1042.51C670.427,1042.51 670.518,1042.48 670.677,1042.43C674.367,1041.29 675.655,1036.7 673.068,1033.83C673.023,1033.78 672.978,1033.73 672.932,1033.68C667.857,1027.56 664.88,1024.22 655.337,1025.78C645.8,1027.32 640.432,1024.89 636.803,1021.31C637.136,1021.44 645.434,1024.48 657.142,1021.18C669.109,1017.81 677.321,1026.5 682.169,1033.54C682.169,1033.54 687.683,1026.18 695.355,1025.56C700.95,1025.1 707.17,1026.88 711.006,1026.2Z" style="fill:rgb(46,42,43);fill-rule:nonzero;"/>
            <path d="M789.908,1077.23C788.742,1077.79 787.031,1078.36 784.717,1078.54C778.944,1078.99 775.329,1083.93 774.986,1084.53C772.822,1088.29 768.772,1088.46 764.361,1087.5C764.361,1087.5 764.418,1087.48 764.518,1087.45C766.841,1086.73 767.652,1083.84 766.023,1082.03C765.995,1082 765.967,1081.97 765.938,1081.94C762.743,1078.09 760.869,1075.98 754.86,1076.97C748.856,1077.94 745.477,1076.41 743.192,1074.16C743.402,1074.24 748.626,1076.15 755.997,1074.07C763.531,1071.95 768.701,1077.42 771.753,1081.85C771.753,1081.85 775.225,1077.22 780.055,1076.83C783.576,1076.54 787.493,1077.66 789.908,1077.23Z" style="fill:rgb(46,42,43);fill-rule:nonzero;"/>
            <path d="M426.299,1193.59C428.772,1194.54 431.537,1195.16 434.601,1195.45C437.662,1195.74 441.018,1195.89 444.669,1195.89C449.968,1195.89 454.5,1195.01 458.27,1193.24C462.037,1191.47 465.158,1189.18 467.631,1186.35C470.104,1183.53 471.898,1180.38 473.019,1176.9C474.136,1173.43 474.697,1169.99 474.697,1166.57C474.697,1163.04 474.078,1159.48 472.842,1155.88C471.605,1152.29 469.75,1149.06 467.278,1146.17C464.805,1143.28 461.684,1140.96 457.916,1139.19C454.146,1137.43 449.791,1136.54 444.845,1136.54L426.299,1136.54L426.299,1193.59ZM426.299,1252.41L410.226,1252.41L410.226,1128.77L451.558,1128.77C458.385,1128.77 464.333,1129.77 469.397,1131.77C474.459,1133.78 478.671,1136.45 482.027,1139.81C485.383,1143.17 487.883,1147.11 489.533,1151.64C491.181,1156.18 492.006,1160.92 492.006,1165.86C492.006,1171.05 491.062,1175.9 489.18,1180.43C487.295,1184.97 484.499,1188.97 480.79,1192.45C477.081,1195.92 472.458,1198.66 466.924,1200.66C461.388,1202.66 455.03,1203.66 447.848,1203.66C443.609,1203.66 439.723,1203.4 436.19,1202.87C432.658,1202.34 429.36,1201.66 426.299,1200.84L426.299,1252.41Z" style="fill-rule:nonzero;"/>
            <path d="M555.771,1148.55L555.064,1148.55L529.629,1208.08L583.502,1208.08L555.771,1148.55ZM526.273,1216.03L510.73,1252.41L502.604,1252.41L554.887,1128.77L563.719,1128.77L621.301,1252.41L604.168,1252.41L587.211,1216.03L526.273,1216.03Z" style="fill-rule:nonzero;"/>
            <path d="M647.796,1252.41L647.796,1128.77L663.87,1128.77L663.87,1242.7L727.633,1242.7L727.633,1252.41L647.796,1252.41Z" style="fill-rule:nonzero;"/>
            <path d="M822.839,1234.93L823.545,1234.93L880.774,1128.77L892.962,1128.77L892.962,1252.41L876.888,1252.41L876.888,1152.26L876.181,1152.26L820.366,1254.53L817.187,1254.53L762.607,1151.56L761.9,1151.56L761.9,1252.41L754.129,1252.41L754.129,1128.77L766.139,1128.77L822.839,1234.93Z" style="fill-rule:nonzero;"/>
            <path d="M1038.94,1244.64C1042.72,1244.64 1046.3,1244.08 1049.67,1242.96C1053.03,1241.85 1055.96,1240.17 1058.44,1237.93C1060.92,1235.69 1062.9,1232.98 1064.37,1229.8C1065.85,1226.62 1066.59,1222.98 1066.59,1218.85C1066.59,1215.08 1065.91,1211.49 1064.55,1208.08C1063.19,1204.66 1061.12,1201.66 1058.35,1199.07C1055.57,1196.48 1052.06,1194.42 1047.8,1192.89C1043.55,1191.36 1038.53,1190.59 1032.74,1190.59L1013.25,1190.59L1013.25,1244.64L1038.94,1244.64ZM1034.44,1182.82C1037.98,1182.82 1041.3,1182.23 1044.42,1181.05C1047.54,1179.88 1050.31,1178.23 1052.72,1176.11C1055.14,1173.99 1057.02,1171.46 1058.38,1168.51C1059.73,1165.57 1060.41,1162.39 1060.41,1158.97C1060.41,1156.27 1059.94,1153.56 1058.99,1150.85C1058.05,1148.14 1056.55,1145.73 1054.49,1143.61C1052.43,1141.49 1049.78,1139.78 1046.54,1138.49C1043.3,1137.19 1039.39,1136.54 1034.8,1136.54L1013.25,1136.54L1013.25,1182.82L1034.44,1182.82ZM997.173,1128.77L1041.43,1128.77C1047.57,1128.77 1052.91,1129.68 1057.45,1131.51C1061.99,1133.33 1065.71,1135.66 1068.6,1138.49C1071.49,1141.31 1073.65,1144.43 1075.06,1147.85C1076.48,1151.26 1077.19,1154.62 1077.19,1157.91C1077.19,1161.68 1076.36,1165.24 1074.71,1168.6C1073.06,1171.96 1070.86,1174.9 1068.09,1177.43C1065.32,1179.97 1062.11,1182.02 1058.46,1183.61C1054.81,1185.2 1050.93,1186 1046.81,1186L1046.81,1186.71C1049.4,1186.82 1052.81,1187.24 1057.05,1187.94C1061.29,1188.65 1065.41,1190.06 1069.42,1192.18C1073.42,1194.3 1076.89,1197.36 1079.84,1201.37C1082.78,1205.37 1084.25,1210.73 1084.25,1217.44C1084.25,1221.68 1083.51,1225.89 1082.03,1230.07C1080.55,1234.25 1078.16,1237.99 1074.85,1241.29C1071.54,1244.58 1067.17,1247.26 1061.73,1249.32C1056.29,1251.38 1049.61,1252.41 1041.69,1252.41L997.173,1252.41L997.173,1128.77Z" style="fill-rule:nonzero;"/>
            <path d="M1193.76,1128.77L1193.76,1138.49L1130,1138.49L1130,1182.82L1184.76,1182.82L1184.76,1190.94L1130,1190.94L1130,1242.7L1193.76,1242.7L1193.76,1252.41L1113.93,1252.41L1113.93,1128.77L1193.76,1128.77Z" style="fill-rule:nonzero;"/>
            <path d="M1257.53,1148.55L1256.82,1148.55L1231.39,1208.08L1285.26,1208.08L1257.53,1148.55ZM1228.03,1216.03L1212.49,1252.41L1204.36,1252.41L1256.65,1128.77L1265.48,1128.77L1323.06,1252.41L1305.93,1252.41L1288.97,1216.03L1228.03,1216.03Z" style="fill-rule:nonzero;"/>
            <path d="M1458.89,1234.4C1457.36,1236.16 1455.12,1238.22 1452.18,1240.58C1449.23,1242.93 1445.55,1245.14 1441.14,1247.2C1436.72,1249.26 1431.54,1251 1425.59,1252.41C1419.65,1253.83 1412.9,1254.53 1405.37,1254.53C1393.47,1254.53 1383.23,1252.68 1374.64,1248.97C1366.04,1245.26 1358.97,1240.37 1353.44,1234.31C1347.9,1228.24 1343.81,1221.3 1341.16,1213.47C1338.51,1205.64 1337.19,1197.6 1337.19,1189.36C1337.19,1179.82 1338.84,1171.19 1342.14,1163.48C1345.43,1155.77 1350.08,1149.17 1356.09,1143.7C1362.09,1138.22 1369.31,1134.01 1377.73,1131.07C1386.14,1128.12 1395.48,1126.65 1405.72,1126.65C1412.79,1126.65 1419.09,1127.36 1424.62,1128.77C1430.16,1130.18 1434.98,1132.13 1439.11,1134.6C1443.23,1137.07 1446.67,1140.02 1449.44,1143.43C1452.2,1146.85 1454.47,1150.56 1456.24,1154.56L1443.17,1154.56C1442.34,1152.09 1440.9,1149.64 1438.84,1147.23C1436.78,1144.82 1434.13,1142.67 1430.89,1140.78C1427.65,1138.9 1423.94,1137.37 1419.77,1136.19C1415.58,1135.01 1410.96,1134.42 1405.9,1134.42C1398.48,1134.42 1391.62,1135.78 1385.32,1138.49C1379.02,1141.19 1373.58,1144.96 1368.98,1149.79C1364.39,1154.62 1360.83,1160.36 1358.3,1167.01C1355.76,1173.66 1354.5,1181 1354.5,1189C1354.5,1196.54 1355.71,1203.78 1358.12,1210.73C1360.53,1217.68 1364.1,1223.8 1368.81,1229.1C1373.52,1234.4 1379.4,1238.64 1386.47,1241.81C1393.54,1244.99 1401.66,1246.58 1410.85,1246.58C1427.33,1246.58 1441.58,1240.93 1453.59,1229.63L1458.89,1234.4Z" style="fill-rule:nonzero;"/>
            <path d="M1499.69,1252.41L1483.62,1252.41L1483.62,1128.77L1499.69,1128.77L1499.69,1182.82L1573.7,1182.82L1573.7,1128.77L1589.77,1128.77L1589.77,1252.41L1573.7,1252.41L1573.7,1190.94L1499.69,1190.94L1499.69,1252.41Z" style="fill-rule:nonzero;"/>
        </g>
    </g>
</svg>
